<svg width="17" height="17" viewBox="0 0 17 17" fill="none" xmlns="http://www.w3.org/2000/svg">
<path d="M15.9994 7.87004H15.9079C14.0852 7.87004 12.2625 7.86941 10.4397 7.87097C10.2521 7.87097 10.1014 7.80574 9.97895 7.66559C9.81106 7.47395 9.64128 7.28355 9.47088 7.09408C9.28388 6.88621 8.98755 6.8887 8.79554 7.09252C8.59068 7.31039 8.38144 7.52451 8.17314 7.73925C8.08731 7.82759 7.98081 7.87004 7.85739 7.87004C5.59143 7.87004 3.32516 7.87004 1.0592 7.87004H1C1.01378 7.73988 1.02443 7.6144 1.04135 7.48986C1.10619 7.01293 1.21613 6.54661 1.36868 6.08965C1.38873 6.0291 1.41692 6.01318 1.47894 6.01318C3.85986 6.01505 6.24046 6.01412 8.62138 6.01536C8.88513 6.01536 9.10251 5.92329 9.27573 5.72384C9.41387 5.56465 9.55451 5.40796 9.69578 5.25158C9.89845 5.02716 10.1725 5.02685 10.3739 5.25096C10.5443 5.44073 10.7132 5.63145 10.882 5.82247C10.9976 5.95325 11.142 6.01505 11.3168 6.01505C12.7223 6.01443 14.1278 6.01505 15.5333 6.01412C15.5812 6.01412 15.6132 6.01849 15.6316 6.07373C15.8224 6.64243 15.9486 7.22393 15.9997 7.82166C16.0006 7.83445 15.9994 7.84756 15.9994 7.87004Z" fill="white"/>
<path d="M1.10587 9.8892H1.21425C2.79172 9.8892 4.36918 9.88827 5.94665 9.89014C6.21102 9.89045 6.42809 9.799 6.60131 9.59986C6.73945 9.44098 6.88135 9.28523 7.02011 9.12667C7.21526 8.90412 7.5025 8.90287 7.6989 9.1248C7.8646 9.31176 8.03187 9.49686 8.196 9.68507C8.31629 9.82334 8.46476 9.88983 8.64894 9.88951C11.027 9.88827 13.4048 9.88889 15.7829 9.88889C15.8189 9.88889 15.855 9.88889 15.9067 9.88889C15.8628 10.0749 15.8243 10.2516 15.7792 10.4264C15.6664 10.8649 15.5092 11.2875 15.3175 11.6977C15.2949 11.7461 15.2702 11.7667 15.2135 11.7667C12.7129 11.7651 10.2123 11.7654 7.71174 11.7651C7.54384 11.7651 7.40163 11.7049 7.28949 11.5791C7.11627 11.3849 6.94305 11.1908 6.77109 10.996C6.58753 10.7881 6.29591 10.776 6.10232 10.9732C5.90937 11.1702 5.71642 11.3674 5.53067 11.571C5.4085 11.7049 5.26723 11.7679 5.08399 11.7673C3.99142 11.7635 2.89885 11.7648 1.80659 11.7667C1.74425 11.7667 1.71042 11.7504 1.68286 11.6914C1.42162 11.1284 1.22866 10.5437 1.11214 9.93415C1.11026 9.92416 1.10932 9.91386 1.10587 9.8892Z" fill="white"/>
<path d="M2.48694 3.99589C5.42542 0.0274758 11.5166 -0.0246499 14.5193 3.99589H14.4373C13.994 3.99589 13.5508 3.99495 13.1073 3.9962C12.9209 3.99682 12.7699 3.92816 12.6477 3.78676C12.4811 3.59387 12.3104 3.4044 12.1406 3.21432C11.9646 3.01705 11.6648 3.01393 11.4816 3.20495C11.2764 3.41907 11.0687 3.6307 10.8648 3.84607C10.7627 3.95375 10.6393 3.99651 10.4936 3.9962C9.61497 3.99495 8.73602 3.99558 7.85739 3.99558C6.10514 3.99558 4.35289 3.99558 2.60033 3.99558L2.48694 3.99589Z" fill="white"/>
<path d="M13.9994 13.6154C11.1906 16.6961 6.06254 16.8903 3.0066 13.621C3.03761 13.6167 3.06079 13.612 3.08459 13.6104C3.29791 13.5961 3.47614 13.5083 3.61866 13.3517C3.76401 13.1918 3.90653 13.0298 4.04874 12.8675C4.26268 12.6235 4.53927 12.6206 4.75352 12.8616C4.91421 13.0423 5.07741 13.2212 5.23466 13.4047C5.35651 13.5467 5.5078 13.616 5.69324 13.6154C5.7609 13.6154 5.82887 13.6154 5.89653 13.6154C8.56124 13.6154 11.2263 13.6154 13.891 13.6154C13.9239 13.6154 13.9571 13.6154 13.9994 13.6154Z" fill="white"/>
</svg>
