<svg width="17" height="17" viewBox="0 0 17 17" fill="none" xmlns="http://www.w3.org/2000/svg">
<path d="M3.19438 8.32623L8.27992 0C8.28457 0.0250336 8.28789 0.0502846 8.28987 0.0756508C8.28987 2.03128 8.2905 3.98691 8.29177 5.94254C8.29177 6.02107 8.27252 6.06044 8.19405 6.09528C6.75226 6.73635 5.31152 7.37975 3.87184 8.02549C3.65589 8.12195 3.43952 8.2176 3.19438 8.32623Z" fill="white"/>
<path d="M13.7965 8.31242L10.6133 6.88888C10.0175 6.62256 9.42208 6.3548 8.82435 6.09178C8.75561 6.06148 8.73277 6.02746 8.73277 5.95491C8.73559 4.2465 8.73672 2.53802 8.73615 0.829469C8.73615 0.561499 8.73615 0.295797 8.75624 0.0204067C10.442 2.78077 12.1276 5.54045 13.8132 8.29944L13.7965 8.31242Z" fill="white"/>
<path d="M3.22166 8.78714L8.28669 6.52857V11.7024L3.22166 8.78714Z" fill="white"/>
<path d="M8.7389 11.7006V6.52919L13.7885 8.78714L8.7389 11.7006Z" fill="white"/>
<path d="M8.26893 16.9998L3 9.70875L3.01248 9.69721C3.34131 9.89083 3.67028 10.0845 3.99938 10.2783L6.3683 11.6767C6.98168 12.038 7.59505 12.3981 8.20484 12.7626C8.22331 12.7749 8.23888 12.7909 8.25051 12.8095C8.26214 12.8281 8.26958 12.8489 8.27231 12.8706C8.27541 14.2253 8.27619 15.5798 8.27464 16.9342C8.27442 16.9464 8.27231 16.9586 8.26893 16.9998Z" fill="white"/>
<path d="M8.73467 16.967V15.1042C8.73467 14.3735 8.73467 13.6428 8.7334 12.9118C8.7334 12.8368 8.74905 12.7902 8.82118 12.7469C10.4358 11.7979 12.0492 10.8469 13.6614 9.89386C13.7685 9.82661 13.8818 9.76927 13.9998 9.72256L8.75709 16.9767L8.73467 16.967Z" fill="white"/>
</svg>
