<svg width="17" height="17" viewBox="0 0 17 17" fill="none" xmlns="http://www.w3.org/2000/svg">
<path d="M13.5627 13.2424L8.91388 8.51653L13.6435 3.70761C15.9158 5.85448 16.3444 10.4281 13.5627 13.2424Z" fill="white"/>
<path d="M8.50494 8.9156L13.1 13.5915C13.0335 13.6253 12.9398 13.6807 12.84 13.723C11.4741 14.2982 10.109 14.8764 8.73926 15.44C8.61303 15.4923 8.43691 15.5238 8.31899 15.4754C6.85481 14.8749 5.39744 14.2582 3.93931 13.6438C3.90756 13.6307 3.88261 13.6015 3.89093 13.6076L8.50494 8.9156Z" fill="white"/>
<path d="M4.35656 12.0951L8.71583 1.5L12.9746 3.32929L4.35656 12.0951Z" fill="white"/>
<path d="M7.93877 2.0221C6.39573 5.77297 4.85244 9.52384 3.30889 13.2747L3.19248 13.3516C3.15659 13.2587 3.11177 13.1695 3.05869 13.0855C2.0677 11.8222 1.45694 10.4158 1.50305 8.77028C1.51 8.58562 1.57942 8.40906 1.69958 8.27047C3.7007 6.21639 5.70862 4.16974 7.72334 2.13052C7.77474 2.07824 7.83219 2.03364 7.88737 1.98596L7.93877 2.0221Z" fill="white"/>
</svg>
