<svg width="17" height="17" viewBox="0 0 17 17" fill="none" xmlns="http://www.w3.org/2000/svg">
<path d="M9.30138 10.261C9.30138 10.6927 9.30138 11.1047 9.30138 11.5179C9.29118 11.7137 9.33711 11.9083 9.43352 12.0777C9.52993 12.2471 9.67262 12.384 9.84403 12.4715C10.4017 12.7909 10.9587 13.1115 11.5149 13.4333C11.6836 13.5423 11.8795 13.5989 12.0789 13.5962C12.2784 13.5936 12.4728 13.5317 12.6386 13.4182C13.1779 13.0837 13.7273 12.7643 14.279 12.4507C14.4511 12.3656 14.5942 12.2295 14.6897 12.06C14.7853 11.8906 14.8289 11.6956 14.8148 11.5005C14.8013 10.8628 14.8035 10.2275 14.8148 9.5852C14.825 9.38943 14.7788 9.19489 14.6819 9.02578C14.585 8.85667 14.4418 8.72039 14.2699 8.63386C13.7137 8.31329 13.1553 7.99505 12.5979 7.67447C12.4308 7.57119 12.2388 7.51785 12.0436 7.52051C11.8484 7.52317 11.6578 7.58171 11.4934 7.6895C9.52523 8.8364 7.55024 9.97171 5.58429 11.1244C5.38413 11.2577 5.15046 11.3287 4.91165 11.3287C4.67284 11.3287 4.43916 11.2577 4.23899 11.1244C3.21551 10.5187 2.18563 9.9266 1.14933 9.34794C0.707308 9.10028 0.494765 8.76348 0.504939 8.22996C0.52868 6.97891 0.516244 5.7267 0.504939 4.47449C0.496027 4.29122 0.538836 4.10918 0.628243 3.95014C0.71765 3.7911 0.849884 3.66176 1.00915 3.57757C2.12157 2.93411 3.23662 2.29413 4.35431 1.65761C4.52897 1.5509 4.72915 1.4959 4.93254 1.49876C5.13593 1.50162 5.33456 1.56221 5.50629 1.6738C6.57123 2.30184 7.63917 2.92562 8.71013 3.54516C8.88709 3.63881 9.03428 3.7822 9.1344 3.9585C9.23453 4.1348 9.28343 4.3367 9.27538 4.54046C9.27538 4.89692 9.28782 5.25452 9.27538 5.60982C9.27272 5.66819 9.25828 5.72536 9.23299 5.77774C9.2077 5.83012 9.17209 5.87656 9.12841 5.91418C8.69543 6.18846 8.24776 6.4396 7.80347 6.69652C7.75561 6.71551 7.70598 6.72948 7.65537 6.7382C7.65537 6.36323 7.63954 6.00908 7.65537 5.65726C7.68589 5.0786 7.45075 4.68281 6.94203 4.42126C6.4333 4.15971 5.93476 3.85534 5.4362 3.5637C5.27219 3.45522 5.08133 3.39693 4.88606 3.3957C4.6908 3.39447 4.49927 3.45035 4.33396 3.55675C3.76871 3.88774 3.20346 4.20946 2.63821 4.53004C2.48031 4.60778 2.34815 4.73124 2.25813 4.88511C2.1681 5.03899 2.12416 5.21651 2.13173 5.39571C2.13173 6.08315 2.13173 6.77176 2.13173 7.46036C2.12683 7.62755 2.16776 7.7928 2.24988 7.93741C2.33199 8.08202 2.45202 8.20021 2.59637 8.27859C3.20345 8.64198 3.81506 9.00075 4.43232 9.34562C4.7873 9.54468 5.13888 9.49839 5.4916 9.29008C7.46998 8.13276 9.45513 6.97545 11.4346 5.81814C11.619 5.69713 11.8331 5.63221 12.052 5.63098C12.271 5.62975 12.4858 5.69225 12.6714 5.81119C13.725 6.42919 14.7787 7.04489 15.8425 7.64207C16.2947 7.89552 16.5061 8.23922 16.4959 8.78084C16.471 10.0238 16.4857 11.2679 16.4891 12.5109C16.4987 12.6902 16.4585 12.8687 16.3733 13.0258C16.2881 13.1828 16.1613 13.312 16.0075 13.3985C14.877 14.0597 13.7413 14.7128 12.6002 15.3579C12.438 15.4538 12.2535 15.5033 12.0662 15.5012C11.8788 15.4992 11.6955 15.4457 11.5353 15.3463L8.18897 13.4263C8.03007 13.3408 7.89682 13.2128 7.80344 13.0558C7.71006 12.8989 7.66006 12.7189 7.65876 12.5352C7.64293 12.1371 7.64746 11.7389 7.65876 11.3408C7.66117 11.2936 7.67328 11.2475 7.69432 11.2054C7.71536 11.1633 7.74486 11.1262 7.78086 11.0966C8.23872 10.8154 8.70561 10.5504 9.17024 10.2865C9.21284 10.2728 9.25686 10.2643 9.30138 10.261Z" fill="white"/>
</svg>
