<svg width="17" height="17" viewBox="0 0 17 17" fill="none" xmlns="http://www.w3.org/2000/svg">
<path d="M16.0001 8.26307V8.74047C15.997 8.76586 15.9918 8.79144 15.9916 8.81683C15.9897 9.02334 15.9684 9.22803 15.9439 9.43272C15.9069 9.7424 15.8501 10.0484 15.7721 10.3502C15.4128 11.743 14.718 12.9433 13.6736 13.9308C12.324 15.2071 10.7153 15.8932 8.85876 15.9925C8.84618 15.9931 8.83379 15.9974 8.82141 15.9998H8.18829C8.17591 15.9972 8.16353 15.9933 8.15094 15.9925C8.09431 15.9887 8.03767 15.986 7.98104 15.9826C7.73157 15.9674 7.48392 15.9363 7.2375 15.8944C6.69166 15.8021 6.16288 15.6506 5.65135 15.439C4.58546 14.9975 3.66856 14.3455 2.90167 13.4839C2.2239 12.7224 1.72252 11.8575 1.39672 10.8911C1.26336 10.4952 1.16491 10.0907 1.09934 9.67823C1.05874 9.42176 1.03236 9.16366 1.01815 8.90414C1.0151 8.84952 1.00617 8.7951 0.999878 8.74068V8.26327C1.00292 8.25088 1.00759 8.2385 1.00861 8.22591C1.0151 8.14346 1.0216 8.06102 1.02667 7.97837C1.0423 7.7288 1.07316 7.48106 1.11477 7.23454C1.20672 6.69013 1.35551 6.16155 1.56845 5.65226C2.21334 4.11141 3.25101 2.90764 4.68289 2.05009C5.79425 1.38445 7.00386 1.04452 8.2977 1.0039C8.54108 0.996186 8.78467 0.999435 9.02744 1.02157C9.21318 1.03842 9.39871 1.05609 9.58363 1.08066C9.94272 1.12818 10.2955 1.20717 10.6422 1.31155C11.9959 1.7193 13.1513 2.44546 14.09 3.50221C15.2789 4.84102 15.9173 6.40848 15.9922 8.20154C15.993 8.22225 15.9972 8.24256 16.0001 8.26307ZM7.72304 6.51752V6.52544C8.85917 6.52544 9.99529 6.52503 11.1314 6.52605C11.2339 6.52605 11.3163 6.49051 11.3849 6.41477C11.8603 5.89046 12.3366 5.36675 12.8124 4.84284C12.8233 4.83086 12.8345 4.81888 12.8438 4.80568C12.9053 4.71958 12.8613 4.60282 12.7578 4.58069C12.7295 4.5746 12.6997 4.5746 12.6707 4.5746C10.9763 4.57378 9.28179 4.57338 7.58745 4.57297C7.02111 4.57297 6.45457 4.57257 5.88823 4.57277C5.85758 4.57277 5.82632 4.57317 5.79628 4.57866C5.7226 4.59186 5.66779 4.63592 5.61867 4.69034C5.1859 5.16795 4.75252 5.64495 4.31934 6.12215C4.27245 6.17394 4.22536 6.22531 4.17908 6.2777C4.13767 6.32461 4.1265 6.37862 4.15309 6.43569C4.17867 6.49051 4.22353 6.51894 4.28544 6.51752C4.29518 6.51732 4.30493 6.51752 4.31467 6.51752C5.4508 6.51752 6.58712 6.51752 7.72304 6.51752ZM7.72568 7.52493V7.53081C6.94499 7.53081 6.1643 7.53081 5.3834 7.53081C5.03284 7.53081 4.68208 7.53163 4.33152 7.53203C4.31041 7.53203 4.2893 7.53163 4.26819 7.53325C4.1941 7.53914 4.14071 7.59844 4.1399 7.67296C4.13929 7.72068 4.16365 7.7554 4.19389 7.78871C4.53004 8.15889 4.86578 8.52949 5.20173 8.89988C5.34362 9.05624 5.48611 9.21199 5.62719 9.36876C5.6755 9.42257 5.73254 9.46034 5.8042 9.47232C5.83282 9.47699 5.86225 9.4774 5.89128 9.4774C7.5095 9.47618 9.12792 9.47455 10.7461 9.47293C11.3858 9.47232 12.0252 9.47212 12.6648 9.47151C12.6908 9.47151 12.7167 9.47211 12.7427 9.47008C12.8144 9.4642 12.8674 9.40612 12.8702 9.33444C12.872 9.28489 12.8485 9.24834 12.8168 9.21361C12.4805 8.84343 12.1447 8.47304 11.8088 8.10265C11.6681 7.9475 11.527 7.79257 11.3866 7.63722C11.3478 7.59437 11.3056 7.55518 11.2489 7.54077C11.2071 7.53021 11.1629 7.52533 11.1196 7.52533C9.98818 7.52452 8.85714 7.52493 7.72568 7.52493ZM7.72934 12.4291C8.03118 12.4291 8.33302 12.4298 8.63507 12.4298C9.46772 12.43 10.3004 12.4304 11.1328 12.4304C11.1602 12.4304 11.188 12.4291 11.2148 12.4241C11.2865 12.4105 11.3407 12.3686 11.389 12.3154C11.8252 11.8344 12.2621 11.3539 12.6987 10.8733C12.7446 10.8227 12.7908 10.7727 12.8353 10.7212C12.8749 10.6751 12.8826 10.6215 12.857 10.5666C12.8323 10.5138 12.7886 10.4858 12.7289 10.4856C12.7029 10.4856 12.677 10.4854 12.651 10.4852C11.5004 10.4832 10.3497 10.4805 9.19917 10.4793C8.08903 10.4783 6.97889 10.4789 5.86875 10.4785C5.77578 10.4785 5.69803 10.511 5.63551 10.58C5.61582 10.6018 5.59593 10.6231 5.57624 10.6446C5.16702 11.0954 4.758 11.546 4.34877 11.9968C4.29092 12.0606 4.23266 12.1239 4.17603 12.1885C4.13726 12.2328 4.12853 12.2844 4.15208 12.3384C4.17542 12.3922 4.21785 12.4212 4.27752 12.4231C4.28889 12.4235 4.30026 12.4237 4.31163 12.4237C4.77728 12.4255 5.24314 12.4281 5.70879 12.4287C6.38231 12.4296 7.05562 12.4291 7.72934 12.4291Z" fill="white"/>
</svg>
