<svg width="27" height="43" viewBox="0 0 27 43" fill="none" xmlns="http://www.w3.org/2000/svg">
<g clip-path="url(#clip0_3942_1455)">
<path d="M21.7112 21.4315C21.4383 21.285 21.1781 21.1214 20.9326 20.942C14.2734 15.1627 7.62298 9.37644 0.981325 3.58306C0.57254 3.22732 0.263149 2.7947 0.077008 2.31854C-0.193161 1.57615 0.275885 0.744019 1.04136 0.3149C1.4267 0.0966126 1.8803 -0.012578 2.33986 0.00232157C2.79941 0.0172211 3.24239 0.155477 3.60797 0.39811C3.82541 0.55209 4.0304 0.718915 4.22148 0.897394C11.476 7.19876 18.7243 13.5012 25.9663 19.8047C27.3491 21.0073 27.3434 21.9911 25.9513 23.2034C18.6705 29.5342 11.3847 35.8616 4.0939 42.1858C3.66316 42.5491 3.13503 42.8133 2.55731 42.9543C1.68677 43.155 0.758065 42.6965 0.305907 42.0112C0.0829769 41.6738 -0.0183255 41.286 0.0151254 40.8979C0.0485763 40.5098 0.215239 40.1394 0.493524 39.8347C0.675701 39.6485 0.86988 39.4714 1.07513 39.3044C7.69928 33.5469 14.3209 27.791 20.9401 22.0368C21.1183 21.8785 21.3209 21.735 21.7112 21.4315Z" fill="white" fill-opacity="0.4"/>
</g>
<defs>
<clipPath id="clip0_3942_1455">
<rect width="27" height="43" fill="white"/>
</clipPath>
</defs>
</svg>
