<svg width="32" height="32" viewBox="0 0 32 32" fill="none" xmlns="http://www.w3.org/2000/svg">
<path d="M15.9998 10.6667C13.1092 10.6667 10.6665 13.1094 10.6665 16.0001C10.6665 18.8907 13.1092 21.3334 15.9998 21.3334C18.8905 21.3334 21.3332 18.8907 21.3332 16.0001C21.3332 13.1094 18.8905 10.6667 15.9998 10.6667ZM15.9998 18.6667C14.5798 18.6667 13.3332 17.4201 13.3332 16.0001C13.3332 14.5801 14.5798 13.3334 15.9998 13.3334C17.4198 13.3334 18.6665 14.5801 18.6665 16.0001C18.6665 17.4201 17.4198 18.6667 15.9998 18.6667Z" fill="#E0E0E0"/>
<path d="M26.6665 6.66675H23.2185L19.6092 3.05742C19.4856 2.93336 19.3386 2.83498 19.1769 2.76793C19.0151 2.70088 18.8416 2.6665 18.6665 2.66675H13.3332C13.158 2.6665 12.9846 2.70088 12.8228 2.76793C12.661 2.83498 12.5141 2.93336 12.3905 3.05742L8.78117 6.66675H5.33317C3.8625 6.66675 2.6665 7.86275 2.6665 9.33342V24.0001C2.6665 25.4707 3.8625 26.6667 5.33317 26.6667H26.6665C28.1372 26.6667 29.3332 25.4707 29.3332 24.0001V9.33342C29.3332 7.86275 28.1372 6.66675 26.6665 6.66675ZM5.33317 24.0001V9.33342H9.33317C9.68784 9.33342 10.0265 9.19342 10.2758 8.94275L13.8852 5.33342H18.1145L21.7238 8.94275C21.8474 9.06681 21.9944 9.16519 22.1561 9.23224C22.3179 9.29928 22.4914 9.33367 22.6665 9.33342H26.6665L26.6692 24.0001H5.33317Z" fill="#E0E0E0"/>
</svg>
