<svg width="18" height="18" viewBox="0 0 18 18" fill="none" xmlns="http://www.w3.org/2000/svg">
<path d="M6.34892 8.4698C7.19867 7.62005 8.68067 7.62005 9.53042 8.4698L10.0607 9.00005L11.1212 7.93955L10.5909 7.4093C9.88367 6.7013 8.94167 6.31055 7.93967 6.31055C6.93767 6.31055 5.99567 6.7013 5.28842 7.4093L3.69692 9.00005C2.99514 9.70408 2.60107 10.6576 2.60107 11.6517C2.60107 12.6457 2.99514 13.5993 3.69692 14.3033C4.04482 14.6517 4.45815 14.9279 4.91313 15.1161C5.36812 15.3043 5.85581 15.4007 6.34817 15.3998C6.84067 15.4008 7.32851 15.3045 7.78363 15.1163C8.23876 14.9281 8.6522 14.6518 9.00017 14.3033L9.53042 13.773L8.46992 12.7125L7.93967 13.2428C7.51702 13.6636 6.94492 13.8998 6.34855 13.8998C5.75217 13.8998 5.18007 13.6636 4.75742 13.2428C4.3363 12.8203 4.09982 12.2482 4.09982 11.6517C4.09982 11.0552 4.3363 10.483 4.75742 10.0605L6.34892 8.4698Z" fill="white"/>
<path d="M8.99991 3.69681L8.46966 4.22706L9.53016 5.28756L10.0604 4.75731C10.4831 4.33655 11.0552 4.10033 11.6515 4.10033C12.2479 4.10033 12.82 4.33655 13.2427 4.75731C13.6638 5.17976 13.9003 5.75193 13.9003 6.34843C13.9003 6.94493 13.6638 7.5171 13.2427 7.93956L11.6512 9.53031C10.8014 10.3801 9.31941 10.3801 8.46966 9.53031L7.93941 9.00006L6.87891 10.0606L7.40916 10.5908C8.11641 11.2988 9.05841 11.6896 10.0604 11.6896C11.0624 11.6896 12.0044 11.2988 12.7117 10.5908L14.3032 9.00006C15.0049 8.29602 15.399 7.34249 15.399 6.34843C15.399 5.35437 15.0049 4.40084 14.3032 3.69681C13.5993 2.99466 12.6457 2.60034 11.6515 2.60034C10.6573 2.60034 9.70375 2.99466 8.99991 3.69681Z" fill="white"/>
</svg>
