<svg width="16" height="16" viewBox="0 0 16 16" fill="none" xmlns="http://www.w3.org/2000/svg">
<path d="M13.3333 1.33337H6.66658C5.93125 1.33337 5.33325 1.93137 5.33325 2.66671V5.33337H2.66659C1.93125 5.33337 1.33325 5.93137 1.33325 6.66671V13.3334C1.33325 14.0687 1.93125 14.6667 2.66659 14.6667H9.33325C10.0686 14.6667 10.6666 14.0687 10.6666 13.3334V10.6667H13.3333C14.0686 10.6667 14.6666 10.0687 14.6666 9.33337V2.66671C14.6666 1.93137 14.0686 1.33337 13.3333 1.33337ZM2.66659 13.3334V6.66671H9.33325L9.33458 13.3334H2.66659ZM13.3333 9.33337H10.6666V6.66671C10.6666 5.93137 10.0686 5.33337 9.33325 5.33337H6.66658V2.66671H13.3333V9.33337Z" fill="white"/>
</svg>
