<svg width="406" height="214" viewBox="0 0 406 214" fill="none" xmlns="http://www.w3.org/2000/svg">
<path d="M68.5 17L68.9331 29.0669L81 29.5L68.9331 29.9331L68.5 42L68.0669 29.9331L56 29.5L68.0669 29.0669L68.5 17Z" fill="white"/>
<path d="M378.5 0L379.072 15.9283L395 16.5L379.072 17.0717L378.5 33L377.928 17.0717L362 16.5L377.928 15.9283L378.5 0Z" fill="white"/>
<g opacity="0.5">
<path d="M315.25 32.4067L320.633 41.003L329.593 36.25L320.997 41.6332L325.75 50.5933L320.367 41.997L311.407 46.75L320.003 41.3668L315.25 32.4067Z" fill="white"/>
</g>
<g opacity="0.5">
<path d="M390.127 166.115L394.345 172.852L401.368 169.127L394.631 173.345L398.356 180.368L394.137 173.631L387.115 177.356L393.852 173.137L390.127 166.115Z" fill="white"/>
</g>
<g opacity="0.5">
<path d="M7.12652 195.115L11.3454 201.852L18.3675 198.127L11.6305 202.345L15.3555 209.368L11.1367 202.631L4.1145 206.356L10.8515 202.137L7.12652 195.115Z" fill="white"/>
</g>
<g opacity="0.5">
<path d="M12.6313 92.2066L19.3436 98.4538L26.056 92.2066L19.8088 98.9189L26.056 105.631L19.3436 99.3841L12.6313 105.631L18.8785 98.9189L12.6313 92.2066Z" fill="white"/>
</g>
</svg>
