<svg width="127" height="127" viewBox="0 0 127 127" fill="none" xmlns="http://www.w3.org/2000/svg">
<path d="M97 0.000366211H30C13.4315 0.000366211 0 13.4318 0 30.0004V97.0004C0 113.569 13.4315 127 30 127H97C113.569 127 127 113.569 127 97.0004V30.0004C127 13.4318 113.569 0.000366211 97 0.000366211Z" fill="white"/>
<path d="M97 0.000366211H30C13.4315 0.000366211 0 13.4318 0 30.0004V97.0004C0 113.569 13.4315 127 30 127H97C113.569 127 127 113.569 127 97.0004V30.0004C127 13.4318 113.569 0.000366211 97 0.000366211Z" fill="url(#paint0_linear_296_4226)"/>
<path d="M90.8371 75.6442C94.2411 75.6442 97.0001 72.8412 97.0001 69.3842C97.0001 65.9272 94.2411 63.1252 90.8371 63.1252C87.4331 63.1252 84.6731 65.9272 84.6731 69.3842C84.6731 72.8412 87.4331 75.6442 90.8371 75.6442Z" fill="white"/>
<path d="M92.8291 87.3193C91.6531 88.1713 90.3761 88.8933 88.9581 88.9263C85.9041 89.0003 83.7701 85.9863 82.2071 83.3153L63.1471 50.6943C61.9291 48.6063 60.7031 46.5093 59.1851 44.6393C57.3981 42.4353 55.2371 40.5743 52.9941 38.8473C49.6851 36.2923 46.1381 33.9813 42.2361 32.528C38.8761 31.2734 35.2111 30.6762 31.6501 31.1762C29.8223 31.4308 29.7357 32.3521 30.3241 33.9723C30.9571 35.7363 31.9101 37.3563 32.8541 38.9583C40.6261 52.1813 48.3951 65.3983 56.1671 78.6203C59.6591 84.5603 63.4571 90.8013 69.5151 93.9583C73.6681 96.1253 78.6511 96.5883 83.1231 95.2313C87.5951 93.8703 91.5071 90.7043 93.8041 86.5793C93.4851 86.8293 93.1621 87.0793 92.8291 87.3193Z" fill="url(#paint1_linear_296_4226)"/>
<defs>
<linearGradient id="paint0_linear_296_4226" x1="63.5" y1="48.2604" x2="-27.2343" y2="-85.2441" gradientUnits="userSpaceOnUse">
<stop/>
<stop offset="1" stop-opacity="0"/>
</linearGradient>
<linearGradient id="paint1_linear_296_4226" x1="33.6561" y1="8.25971" x2="91.2011" y2="110.865" gradientUnits="userSpaceOnUse">
<stop stop-color="#FFD36A"/>
<stop offset="0.1" stop-color="#D9AF88"/>
<stop offset="0.25" stop-color="#A980AF"/>
<stop offset="0.39" stop-color="#835BCE"/>
<stop offset="0.52" stop-color="#6841E4"/>
<stop offset="0.64" stop-color="#5731F2"/>
<stop offset="0.72" stop-color="#522CF7"/>
<stop offset="0.77" stop-color="#4857D0"/>
<stop offset="0.82" stop-color="#3C8CA2"/>
<stop offset="0.88" stop-color="#33B57E"/>
<stop offset="0.93" stop-color="#2CD364"/>
<stop offset="0.97" stop-color="#28E554"/>
<stop offset="1" stop-color="#27EC4F"/>
</linearGradient>
</defs>
</svg>
