<svg width="18" height="18" viewBox="0 0 18 18" fill="none" xmlns="http://www.w3.org/2000/svg">
<g clip-path="url(#clip0_1286_10193)">
<path d="M15.6129 2.78419C18.8979 6.16744 18.7564 11.9192 15.4143 15.2C13.4236 13.1359 11.4309 11.0709 9.46533 9.03444C11.5181 6.94675 13.5553 4.87581 15.6129 2.7832V2.78419Z" fill="#EFEFEF"/>
<path d="M3.06787 15.5753C5.05958 13.5497 7.0387 11.5359 8.98004 9.5625C10.9068 11.5221 12.8869 13.5359 14.8874 15.5714C14.837 15.598 14.7217 15.6699 14.5977 15.7211C12.8395 16.461 11.0832 17.2039 9.3191 17.929C9.14472 18.0009 8.89964 18.0305 8.73398 17.9625C6.89436 17.2098 5.06346 16.4334 3.23062 15.663C3.1599 15.6334 3.09596 15.5901 3.06787 15.5753Z" fill="#EFEFEF"/>
<path d="M9.29183 0C11.1615 0.803941 12.9827 1.58621 14.7371 2.3399C11.0336 6.1064 7.33596 9.86699 3.71484 13.5498C5.53122 9.13793 7.40184 4.59212 9.29183 0Z" fill="#EFEFEF"/>
<path d="M2.28154 15.2364C0.788724 13.4414 -0.0811974 11.5221 0.00598848 9.23347C0.0118009 9.07288 0.0960805 8.87879 0.207485 8.7645C2.80272 6.11032 5.40667 3.465 8.01062 0.819678C8.05421 0.775343 8.11137 0.74283 8.24311 0.748742C6.26884 5.54677 4.29456 10.3448 2.28154 15.2374V15.2364Z" fill="#EFEFEF"/>
</g>
<defs>
<clipPath id="clip0_1286_10193">
<rect width="18" height="18" fill="white"/>
</clipPath>
</defs>
</svg>
