<svg width="64" height="17" viewBox="0 0 64 17" fill="none" xmlns="http://www.w3.org/2000/svg">
<g clip-path="url(#clip0_330_674)">
<path d="M0 0.46875H3.37209L6.44596 6.25995L9.47396 0.46875H12.8231L8.00584 9.64003V16.6481H4.86315V9.64003L0 0.46875Z" fill="white"/>
<path d="M25.2704 10.4971C25.2704 14.0736 22.5481 16.9998 18.8422 16.9998C15.1362 16.9998 12.5283 14.1433 12.5283 10.5203C12.5283 6.89736 15.5022 4.01758 18.8193 4.01758C22.3651 4.01758 25.2704 6.85091 25.2704 10.4971ZM15.5937 10.4971C15.5937 12.5873 16.8977 14.0736 18.865 14.0736C20.8324 14.0736 22.205 12.6801 22.205 10.5203C22.205 8.36047 20.8553 6.94381 18.865 6.94381C16.8748 6.94381 15.5937 8.45337 15.5937 10.4971Z" fill="white"/>
<path d="M27.7639 4.34277H30.8064V10.7758C30.8064 12.9821 31.4927 14.1433 33.094 14.1433C34.6954 14.1433 35.3816 13.0053 35.3816 10.9152V4.34277H38.4242V10.0327C38.4242 12.3086 38.2869 13.9808 37.0058 15.4206C36.045 16.5122 34.7869 16.9767 33.094 16.9767C30.1659 16.9767 28.3586 15.4671 27.8782 12.5873C27.7181 11.5887 27.7639 11.0081 27.7639 9.98622V4.34277Z" fill="white"/>
<path d="M44.1513 5.89873C44.7232 4.6214 45.7069 4.01758 46.7134 4.01758C47.3539 4.01758 47.7428 4.20337 48.0402 4.34271L47.1023 6.99026C46.8735 6.87414 46.5304 6.73479 46.2101 6.73479C45.3408 6.73479 44.6545 7.75665 44.5859 9.56812C44.563 10.2416 44.563 11.008 44.563 11.6815V16.6747H41.5205V4.34271H44.1513V5.89873Z" fill="white"/>
<path d="M52.7372 11.3332C50.7928 10.3345 49.8091 9.12687 49.8091 7.57086C49.8091 5.64326 51.4104 4.01758 53.7438 4.01758C55.3223 4.01758 56.7635 4.73752 57.7471 6.06129L55.8713 7.98889C55.185 7.29217 54.4987 6.85091 53.7667 6.85091C53.149 6.85091 52.6686 7.10638 52.6686 7.59408C52.6686 8.08179 53.1033 8.26758 53.7667 8.61594L54.8876 9.19654C56.9007 10.2416 57.9759 11.3099 57.9759 13.1446C57.9759 15.3509 56.2602 16.9998 53.6065 16.9998C51.8451 16.9998 50.4039 16.2799 49.3516 14.8864L51.2274 12.7963C51.9366 13.6323 52.966 14.2362 53.7667 14.2362C54.5216 14.2362 55.1164 13.7949 55.1164 13.2375C55.1164 12.6801 54.6131 12.3086 53.7667 11.8673L52.7372 11.3332Z" fill="white"/>
<path d="M62.2841 16.7097C63.2316 16.7097 63.9998 15.9298 63.9998 14.9679C63.9998 14.0059 63.2316 13.2261 62.2841 13.2261C61.3365 13.2261 60.5684 14.0059 60.5684 14.9679C60.5684 15.9298 61.3365 16.7097 62.2841 16.7097Z" fill="#8FF261"/>
</g>
<defs>
<clipPath id="clip0_330_674">
<rect width="64" height="17" fill="white"/>
</clipPath>
</defs>
</svg>
