<svg width="54" height="59" viewBox="0 0 54 59" fill="none" xmlns="http://www.w3.org/2000/svg">
<path d="M21.0789 3.68675C21.5196 2.59747 22.2756 1.66461 23.25 1.00776C24.2243 0.350914 25.3726 0 26.5477 0C27.7227 0 28.871 0.350914 29.8453 1.00776C30.8197 1.66461 31.5757 2.59747 32.0164 3.68675C36.3782 4.88634 40.2257 7.48464 42.9679 11.0826C45.7101 14.6806 47.1953 19.0792 47.1955 23.6031V37.4578L52.5993 45.5635C52.8957 46.0077 53.0659 46.5241 53.0918 47.0575C53.1177 47.5909 52.9984 48.1213 52.7464 48.5921C52.4945 49.063 52.1195 49.4566 51.6613 49.731C51.2032 50.0055 50.6792 50.1503 50.1452 50.1503H36.7683C36.4132 52.6077 35.1845 54.8548 33.3075 56.4801C31.4304 58.1054 29.0306 59 26.5477 59C24.0647 59 21.6649 58.1054 19.7878 56.4801C17.9108 54.8548 16.6821 52.6077 16.327 50.1503H2.95013C2.41611 50.1503 1.89209 50.0055 1.43396 49.731C0.975842 49.4566 0.600809 49.063 0.348877 48.5921C0.0969445 48.1213 -0.0224346 47.5909 0.00347429 47.0575C0.0293832 46.5241 0.199608 46.0077 0.49599 45.5635L5.89982 37.4578V23.6031C5.89982 14.0933 12.3301 6.0819 21.0789 3.68675ZM22.3768 50.1503C22.6814 51.0135 23.2463 51.761 23.9936 52.2897C24.7409 52.8184 25.6337 53.1023 26.5491 53.1023C27.4645 53.1023 28.3574 52.8184 29.1047 52.2897C29.8519 51.761 30.4168 51.0135 30.7215 50.1503H22.3738H22.3768ZM26.5477 8.85461C22.6361 8.85461 18.8848 10.4085 16.1189 13.1743C13.3531 15.9402 11.7992 19.6915 11.7992 23.6031V38.3515C11.7993 38.9342 11.6269 39.5038 11.3037 39.9886L8.4631 44.2509H44.6293L41.7887 39.9886C41.4665 39.5035 41.2951 38.9339 41.2961 38.3515V23.6031C41.2961 19.6915 39.7423 15.9402 36.9764 13.1743C34.2105 10.4085 30.4592 8.85461 26.5477 8.85461V8.85461Z" fill="#0D0D0D"/>
</svg>
