<svg width="24" height="24" viewBox="0 0 24 24" fill="none" xmlns="http://www.w3.org/2000/svg">
<g clip-path="url(#clip0_2104_16578)">
<path d="M11.5625 21.9998C11.5541 21.9906 11.5478 21.9762 11.5373 21.9721C11.0495 21.7767 10.8844 21.5366 10.8844 21.018C10.8844 17.6787 10.8844 14.3394 10.8844 11.0001V10.7482C10.3892 10.7482 9.91127 10.7703 9.43597 10.7441C8.16415 10.6738 6.95573 10.383 5.87465 9.68795C4.81977 9.00983 4.11652 8.06086 3.65956 6.92468C3.17012 5.70795 3.01238 4.43481 2.9998 3.13858C2.99509 2.65486 3.33309 2.25989 3.81887 2.17884C5.1541 1.95674 6.48881 1.90441 7.81566 2.23578C9.63982 2.69128 10.9855 3.74489 11.8533 5.37505C12.5817 6.7436 12.839 8.20757 12.7159 9.73976C12.7012 9.91929 12.6619 10.0968 12.664 10.2896C12.7652 10.1645 12.8637 10.0378 12.9674 9.91416C13.9117 8.78977 15.1223 8.10395 16.5723 7.80695C17.7885 7.55766 19.0043 7.60639 20.2195 7.80131C20.7252 7.88236 20.9998 8.19013 20.9998 8.71026C21.0003 10.1665 20.8059 11.5931 20.175 12.9303C19.3339 14.7123 17.8918 15.7587 15.9534 16.1773C14.9519 16.3938 13.9379 16.4215 12.9187 16.3461C12.8333 16.3399 12.7473 16.345 12.6284 16.345V16.5677C12.6284 17.9932 12.6174 19.4186 12.6341 20.8441C12.6404 21.3915 12.457 21.79 11.922 22.0003H11.563L11.5625 21.9998ZM19.2553 9.36941C17.5616 9.10729 15.9832 9.30067 14.6925 10.4984C13.4904 11.6136 12.9983 13.036 12.9669 14.6323C16.6881 15.2612 19.2852 12.7882 19.2553 9.36941ZM11.0479 9.0129C10.973 7.21757 10.395 5.65974 8.89727 4.54714C7.65636 3.62537 6.22994 3.52688 4.74903 3.75515C4.71077 7.16884 7.32098 9.65102 11.0484 9.0129H11.0479Z" fill="white"/>
</g>
<defs>
<clipPath id="clip0_2104_16578">
<rect width="18" height="20" fill="white" transform="translate(3 2)"/>
</clipPath>
</defs>
</svg>
