<svg width="19" height="19" viewBox="0 0 19 19" fill="none" xmlns="http://www.w3.org/2000/svg">
<path d="M10.292 5.54199H8.70866V8.70866H5.54199V10.292H8.70866V13.4587H10.292V10.292H13.4587V8.70866H10.292V5.54199Z" fill="white"/>
<path d="M9.49967 1.58301C5.13442 1.58301 1.58301 5.13442 1.58301 9.49967C1.58301 13.8649 5.13442 17.4163 9.49967 17.4163C13.8649 17.4163 17.4163 13.8649 17.4163 9.49967C17.4163 5.13442 13.8649 1.58301 9.49967 1.58301ZM9.49967 15.833C6.00763 15.833 3.16634 12.9917 3.16634 9.49967C3.16634 6.00763 6.00763 3.16634 9.49967 3.16634C12.9917 3.16634 15.833 6.00763 15.833 9.49967C15.833 12.9917 12.9917 15.833 9.49967 15.833Z" fill="white"/>
</svg>
