<svg width="24" height="24" viewBox="0 0 24 24" fill="none" xmlns="http://www.w3.org/2000/svg">
<path fill-rule="evenodd" clip-rule="evenodd" d="M11.7944 14C12.899 14 13.7944 13.1046 13.7944 12C13.7944 10.8954 12.899 10 11.7944 10C10.6899 10 9.79443 10.8954 9.79443 12C9.79443 13.1046 10.6899 14 11.7944 14ZM11.7944 16C14.0036 16 15.7944 14.2091 15.7944 12C15.7944 9.79086 14.0036 8 11.7944 8C9.58529 8 7.79443 9.79086 7.79443 12C7.79443 14.2091 9.58529 16 11.7944 16Z" fill="white"/>
<path fill-rule="evenodd" clip-rule="evenodd" d="M8.84555 2.68377C8.98167 2.27543 9.36381 2 9.79424 2H13.7942C14.2247 2 14.6068 2.27543 14.7429 2.68377L15.4812 4.89863C15.6932 5.0089 15.8996 5.12836 16.0999 5.25647L18.388 4.78824C18.8097 4.70195 19.2393 4.89518 19.4545 5.26794L21.4545 8.73204C21.6698 9.10481 21.6223 9.57346 21.3367 9.89551L19.7864 11.6438C19.7916 11.7619 19.7943 11.8807 19.7943 12C19.7943 12.1193 19.7916 12.2381 19.7864 12.3562L21.3367 14.1045C21.6223 14.4265 21.6698 14.8952 21.4545 15.2679L19.4545 18.732C19.2393 19.1048 18.8097 19.298 18.388 19.2117L16.0999 18.7435C15.8997 18.8716 15.6932 18.9911 15.4812 19.1014L14.7429 21.3162C14.6068 21.7246 14.2247 22 13.7942 22H9.79424C9.36381 22 8.98167 21.7246 8.84556 21.3162L8.10726 19.1014C7.89526 18.9911 7.68886 18.8716 7.48859 18.7435L5.20049 19.2118C4.7788 19.298 4.3492 19.1048 4.13399 18.7321L2.13399 15.268C1.91877 14.8952 1.96623 14.4265 2.25181 14.1045L3.80206 12.3563C3.79687 12.2381 3.79425 12.1193 3.79425 12C3.79425 11.8807 3.79687 11.7619 3.80206 11.6438L2.25181 9.89553C1.96623 9.57348 1.91877 9.10482 2.13399 8.73206L4.13399 5.26796C4.3492 4.89519 4.7788 4.70197 5.20049 4.78826L7.48857 5.25648C7.68884 5.12838 7.89525 5.00892 8.10726 4.89864L8.84555 2.68377ZM10.515 4L9.87154 5.93036C9.78323 6.19531 9.58814 6.41125 9.33349 6.52593C8.96326 6.69267 8.61273 6.89601 8.28656 7.1315C8.05977 7.29523 7.77477 7.35649 7.50073 7.30041L5.50566 6.89215L4.22642 9.10786L5.57752 10.6315C5.76263 10.8403 5.85211 11.1169 5.82435 11.3945C5.80446 11.5933 5.79425 11.7953 5.79425 12C5.79425 12.2047 5.80446 12.4067 5.82435 12.6055C5.85212 12.8831 5.76263 13.1597 5.57752 13.3685L4.22642 14.8922L5.50566 17.1079L7.50075 16.6996C7.77479 16.6435 8.05979 16.7048 8.28658 16.8685C8.61274 17.104 8.96326 17.3073 9.33349 17.4741C9.58814 17.5887 9.78323 17.8047 9.87154 18.0696L10.515 20H13.0735L13.7169 18.0697C13.8052 17.8047 14.0003 17.5888 14.255 17.4741C14.6252 17.3073 14.9758 17.104 15.3019 16.8685C15.5287 16.7048 15.8137 16.6435 16.0878 16.6996L18.0829 17.1078L19.3621 14.8921L18.011 13.3685C17.8259 13.1597 17.7364 12.8831 17.7642 12.6055C17.784 12.4066 17.7943 12.2047 17.7943 12C17.7943 11.7953 17.784 11.5933 17.7642 11.3945C17.7364 11.1169 17.8259 10.8403 18.011 10.6315L19.3621 9.10785L18.0829 6.89214L16.0878 7.30041C15.8137 7.35648 15.5287 7.29522 15.3019 7.13149C14.9758 6.896 14.6252 6.69265 14.255 6.52592C14.0003 6.41124 13.8052 6.1953 13.7169 5.93035L13.0735 4H10.515Z" fill="white"/>
</svg>
