<svg width="18" height="18" viewBox="0 0 18 18" fill="none" xmlns="http://www.w3.org/2000/svg">
<path d="M3.75004 2.25043L3.75004 15.7504C3.75047 15.8871 3.78817 16.0211 3.85908 16.1379C3.92998 16.2548 4.03142 16.3501 4.15246 16.4136C4.2735 16.4771 4.40956 16.5063 4.546 16.4983C4.68245 16.4902 4.8141 16.445 4.92679 16.3677L14.6768 9.61768C15.081 9.33793 15.081 8.66443 14.6768 8.38393L4.92679 1.63393C4.81434 1.5558 4.68262 1.50998 4.54595 1.50145C4.40928 1.49293 4.27289 1.52202 4.15159 1.58557C4.03029 1.64911 3.92873 1.74469 3.85793 1.8619C3.78714 1.97912 3.74983 2.11349 3.75004 2.25043Z" fill="#D2F586"/>
</svg>
