<svg width="50" height="50" viewBox="0 0 50 50" fill="none" xmlns="http://www.w3.org/2000/svg">
<g clip-path="url(#clip0_1900_11963)">
<path d="M42.5072 26.0008C42.4435 26.6151 42.0945 26.9377 41.5056 27.1127C40.0089 27.5553 38.5272 28.051 37.0346 28.5098C36.5203 28.6743 35.978 28.7332 35.4403 28.6828C34.9026 28.6323 34.3806 28.4737 33.9058 28.2164C33.4309 27.959 33.013 27.6084 32.6771 27.1854C32.3412 26.7624 32.0943 26.2759 31.9512 25.755C31.3903 23.7913 32.5181 21.5913 34.4555 20.9451C36.0843 20.4022 37.7294 19.9058 39.3675 19.3898C39.8634 19.2335 40.2306 19.4574 40.5548 19.8033L42.5072 26.0008ZM36.1994 25.9753C36.4505 25.8988 36.6731 25.7495 36.8393 25.5464C37.0054 25.3433 37.1076 25.0954 37.1328 24.8342C37.158 24.573 37.1052 24.3101 36.981 24.0789C36.8568 23.8477 36.6667 23.6586 36.435 23.5354C36.2033 23.4123 35.9402 23.3607 35.6791 23.3871C35.4181 23.4135 35.1707 23.5168 34.9684 23.684C34.7661 23.8511 34.6179 24.0745 34.5425 24.3259C34.4672 24.5773 34.4682 24.8454 34.5453 25.0962C34.5952 25.2629 34.6777 25.4181 34.788 25.5526C34.8984 25.6871 35.0344 25.7983 35.1881 25.8798C35.3419 25.9612 35.5103 26.0113 35.6836 26.027C35.8568 26.0428 36.0315 26.0239 36.1974 25.9715L36.1994 25.9753Z" fill="white"/>
<path d="M40.7658 29.433C41.0775 30.4226 41.4336 31.3614 41.6634 32.3295C41.9462 33.5215 41.1792 34.8115 40.0325 35.2402C39.9347 35.2771 39.8362 35.3116 39.7375 35.3427C32.5871 37.5953 25.437 39.8479 18.2871 42.1003C16.5288 42.6542 14.7206 42.0303 13.7291 40.5356C13.5156 40.2154 13.3471 39.8675 13.2283 39.5015C11.1971 33.0873 9.14522 26.6796 7.17691 20.2456C6.58089 18.2982 7.66289 16.4058 9.30928 15.6272C9.53567 15.5217 9.7689 15.4316 10.0074 15.3574C15.8169 13.5272 21.6274 11.6967 27.439 9.86582C28.7308 9.45884 29.9282 9.82109 30.6167 10.8512C30.7867 11.1246 30.9206 11.419 31.015 11.7268C31.2739 12.4958 31.5076 13.2737 31.7692 14.104C31.9005 14.0626 32.0123 14.023 32.1273 13.9911C32.6276 13.8545 33.1226 13.6566 33.6322 13.5993C34.2123 13.5361 34.7967 13.6732 35.2883 13.9876C35.78 14.3021 36.1494 14.7751 36.3354 15.3283C36.6344 16.1968 36.8902 17.0726 37.1776 17.9849L36.8473 18.089C35.9136 18.3831 34.9799 18.6773 34.0463 18.9714C30.7306 20.0309 29.0088 23.5337 30.1906 26.8018C31.2336 29.6874 34.497 31.3476 37.4393 30.4775C38.4373 30.1824 39.4252 29.8519 40.42 29.5437L40.7658 29.433ZM28.4196 12.3729C28.3263 12.3962 28.2561 12.4096 28.1877 12.4311L10.6764 17.9478C10.6262 17.9616 10.5769 17.9785 10.5288 17.9986C10.0185 18.2285 9.72648 18.6207 9.69927 19.1814C9.655 20.1519 10.5546 20.7856 11.5543 20.4706C17.3506 18.6446 23.1468 16.8186 28.943 14.9926C29.0289 14.9655 29.1109 14.9257 29.2079 14.8864L28.4196 12.3729Z" fill="white"/>
</g>
<defs>
<clipPath id="clip0_1900_11963">
<rect width="32" height="28" fill="white" transform="translate(6 16.6152) rotate(-17.4863)"/>
</clipPath>
</defs>
</svg>
